<svg xmlns="http://www.w3.org/2000/svg" viewBox="0 0 32 31"><path fill-rule="evenodd" clip-rule="evenodd" fill="#50a901" d="M28.7 6.3c-6.1-9-19.2-7.4-25-.7C.8 8.9-.3 13.5.1 17.7.5 21 1.7 24 3.4 26c4.5 5.5 12.3 6.1 17.4 2.6 7.2-5 6.7-13.1 2.8-17.6-7-8-19-.1-14.5 9 1.1 2.2 3.6 3.4 5.9 3.4 3.2 0 5.7-3.8 4.2-6.1-1.5-2.4-4.1 0-3 1.8.9 1.4-1 2.2-1.8 2-2.1-.5-3.1-3.4-2.4-5.8.6-2.1 2.8-3.5 4.9-3.4 2.9.2 6.1 2.5 5.8 7.5-.7 8.1-11.3 9.6-15.5 3.8-6.6-9.3 1.2-21.8 13.1-18 6.1 2 10.6 9.2 7.8 16.9-1.1 2.9-1.7 4-1.8 5-.5 3.7 11.2-7.8 2.4-20.8z"></path></svg>